HIERARCHY
ROOT ui
{
	 OFFSET 0 0 0
	 CHANNELS 3 XPosition YPosition Z Position
	 EndSite
	 {
	 OFFSET 0 -1 0
	 }
}
ROOT li
{
	 OFFSET 0 0 0
	 CHANNELS 3 XPosition YPosition Z Position
	 EndSite
	 {
	 OFFSET 0 -1 0
	 }
}
ROOT ul
{
	 OFFSET 0 0 0
	 CHANNELS 3 XPosition YPosition Z Position
	 EndSite
	 {
	 OFFSET 0 -1 0
	 }
}
ROOT ll
{
	 OFFSET 0 0 0
	 CHANNELS 3 XPosition YPosition Z Position
	 EndSite
	 {
	 OFFSET 0 -1 0
	 }
}
ROOT tt
{
	 OFFSET 0 0 0
	 CHANNELS 3 XPosition YPosition Z Position
	 EndSite
	 {
	 OFFSET 0 -1 0
	 }
}
ROOT tb
{
	 OFFSET 0 0 0
	 CHANNELS 3 XPosition YPosition Z Position
	 EndSite
	 {
	 OFFSET 0 -1 0
	 }
}
ROOT td
{
	 OFFSET 0 0 0
	 CHANNELS 3 XPosition YPosition Z Position
	 EndSite
	 {
	 OFFSET 0 -1 0
	 }
}
ROOT v
{
	 OFFSET 0 0 0
	 CHANNELS 3 XPosition YPosition Z Position
	 EndSite
	 {
	 OFFSET 0 -1 0
	 }
}
ROOT bn
{
	 OFFSET 0 0 0
	 CHANNELS 3 XPosition YPosition Z Position
	 EndSite
	 {
	 OFFSET 0 -1 0
	 }
}
MOTION
Frames: 10
Frame Time: 0.002
-0.00360337495803833	-0.0018852839469909667	0		0.4922554931640625	-2.30881689453125	0		-1.206833984375	-0.1588438262939453	0		-0.8805576782226563	-2.494529052734375	0		1.1592490234375	-0.54228076171875	0		2.687605712890625	0.0875308609008789	0		4.37388720703125	0.1382080078125	0		5.67302783203125	0.1943512420654297	0		-0.24139517211914063	5.904759765625	0		
0.06829103088378906	-0.005488068103790283	0		0.4933941955566406	-2.30404150390625	0		-1.189961181640625	-0.16344480895996094	0		-0.9832199096679688	-2.47882373046875	0		1.1373173828125	-0.537037353515625	0		2.7136005859375	0.08992082977294921	0		4.3797880859375	0.13605271911621095	0		5.67675	0.2184190673828125	0		-0.2163206481933594	5.9240419921875	0		
4.48839008808136E-4	0.00657568883895874	0		0.495560546875	-2.297295166015625	0		-1.1889619140625	-0.16075018310546876	0		-0.8762561645507813	-2.484142822265625	0		1.140408447265625	-0.5302827758789063	0		2.689669921875	0.09725777435302735	0		4.38286962890625	0.14394485473632812	0		5.6716201171875	0.20654638671875	0		-0.24899394226074217	5.905412109375	0		
0.06932057189941407	0.0010208510160446167	0		0.4874855041503906	-2.3043623046875	0		-1.2078577880859376	-0.1536806182861328	0		-0.9521395874023437	-2.4809736328125	0		1.14737109375	-0.5316095581054687	0		2.6843037109375	0.08022728729248046	0		4.370845703125	0.14511526489257812	0		5.6665087890625	0.19465582275390625	0		-0.2522797393798828	5.90521728515625	0		
-0.011688995361328124	3.192949891090393E-4	0		0.474746337890625	-2.29634130859375	0		-1.1789189453125	-0.1585238952636719	0		-0.8851332397460937	-2.487528564453125	0		1.150272705078125	-0.5388634643554687	0		2.668412109375	0.08539407348632813	0		4.36172216796875	0.13821893310546876	0		5.6643828125	0.1947194366455078	0		-0.2555025939941406	5.90502001953125	0		
0.007319327831268311	-0.004285214900970459	0		0.47971063232421873	-2.30766064453125	0		-1.2177994384765625	-0.15707290649414063	0		-0.9578441772460937	-2.48142236328125	0		1.1443057861328125	-0.5429501342773437	0		2.681494140625	0.0850032958984375	0		4.36365234375	0.13010183715820312	0		5.65589111328125	0.19505247497558595	0		-0.3920105895996094	5.886349609375	0		
0.0044982748031616214	-0.004469663143157959	0		0.47902493286132813	-2.304867431640625	0		-1.21655908203125	-0.1543756103515625	0		-0.92360595703125	-2.48334033203125	0		1.1226011962890625	-0.5377367553710938	0		2.6778974609375	0.09692726135253907	0		4.3662236328125	0.1509682159423828	0		5.66324755859375	0.20674456787109374	0		-0.26165966796875	5.90462939453125	0		
0.001161620020866394	0.015367263793945313	0		0.4535173645019531	-2.29759765625	0		-1.2062528076171875	-0.1538376007080078	0		-0.9560689697265625	-2.473981689453125	0		1.1418798828125	-0.53929638671875	0		2.68004638671875	0.08973799133300782	0		4.36837060546875	0.14383099365234375	0		5.65836669921875	0.1947557678222656	0		-0.2645567626953125	5.90444287109375	0		
-8.106809854507446E-4	-0.0048172159194946286	0		0.4997889709472656	-2.308677490234375	0		-1.21880322265625	-0.1518515930175781	0		-0.9267328491210938	-2.481780029296875	0		1.13035888671875	-0.5362647705078125	0		2.681543212890625	0.09456618499755859	0		4.36165966796875	0.137858642578125	0		5.65879345703125	0.2119270477294922	0		-0.2673134765625	5.9042666015625	0		
0.0028613240718841555	0.0019109129905700683	0		0.47144747924804686	-2.3053330078125	0		-1.221258544921875	-0.15203883361816406	0		-0.9291312866210938	-2.481960205078125	0		1.144023193359375	-0.5306973876953125	0		2.66602783203125	0.09171974945068359	0		4.35433056640625	0.14490060424804688	0		5.650623046875	0.21218305969238282	0		-0.26991656494140626	5.9041025390625	0		
